<?xml version="1.0" encoding="UTF-8" standalone="no"?>
<!-- Created with Inkscape (http://www.inkscape.org/) -->

<svg
   width="20mm"
   height="60mm"
   viewBox="0 0 300 200"
   version="1.1"
   id="svg5"
   inkscape:version="1.1.1 (3bf5ae0, 2021-09-20)"
   sodipodi:docname="dice.svg"
   xmlns:inkscape="http://www.inkscape.org/namespaces/inkscape"
   xmlns:sodipodi="http://sodipodi.sourceforge.net/DTD/sodipodi-0.dtd"
   xmlns="http://www.w3.org/2000/svg"
   xmlns:svg="http://www.w3.org/2000/svg">
  <sodipodi:namedview
     id="namedview7"
     pagecolor="#ffffff"
     bordercolor="#999999"
     borderopacity="1"
     inkscape:pageshadow="0"
     inkscape:pageopacity="0"
     inkscape:pagecheckerboard="0"
     inkscape:document-units="mm"
     showgrid="false"
     inkscape:zoom="0.74475308"
     inkscape:cx="766.69707"
     inkscape:cy="638.46665"
     inkscape:window-width="1854"
     inkscape:window-height="1011"
     inkscape:window-x="66"
     inkscape:window-y="32"
     inkscape:window-maximized="1"
     inkscape:current-layer="layer2" />
  <defs
     id="defs2" />
  <g
     inkscape:groupmode="layer"
     id="layer2"
     inkscape:label="Drawing"
     style="display:inline">
    <ellipse
       style="opacity:0.421702;fill:#000000;fill-opacity:1;stroke:#000000;stroke-width:0.226608;stroke-opacity:1"
       id="path1596"
       cx="81.323906"
       cy="180.18297"
       rx="4.5800066"
       ry="7.1420422" />
    <path
       style="fill:none;stroke:#000000;stroke-width:3.465;stroke-linecap:butt;stroke-linejoin:miter;stroke-miterlimit:4;stroke-dasharray:none;stroke-opacity:1"
       d="m 63.640649,141.35131 c 0,0 0.909,-15.74122 10.666153,-16.41852 9.757153,-0.67731 36.055468,-6.01648 36.055468,-6.01648 0,0 14.54343,-3.59366 21.83972,3.3861 7.29628,6.97976 39.0387,28.63217 39.0387,28.63217 0,0 4.37985,5.05539 2.26449,10.8302 -2.11536,5.77481 -19.7339,42.91292 -19.7339,42.91292 0,0 -2.06044,6.78533 -8.3602,9.35462 -6.29975,2.5693 -38.52498,16.09076 -38.52498,16.09076 0,0 -7.746602,3.61126 -15.099269,-4.16163 -7.352671,-7.7729 -33.78349,-33.42169 -33.78349,-33.42169 0,0 -4.34345,-4.57044 -3.810558,-10.54275 0.532892,-5.97232 9.447866,-40.6457 9.447866,-40.6457 z"
       id="path1880" />
    <path
       style="fill:#000000;fill-opacity:1;stroke:#000000;stroke-width:0.264583px;stroke-linecap:butt;stroke-linejoin:miter;stroke-opacity:1"
       d="m 102.59598,217.65817 12.16208,-41.46295 c 0,0 1.39458,-2.54435 -0.58869,-4.30609 -1.98328,-1.76173 -32.306491,-28.38942 -32.306491,-28.38942 L 115.687,170.53096 c 0,0 2.35552,2.48004 4.54743,1.61173 2.19191,-0.8683 1.94824,-0.64969 2.25434,-0.8683 0.30611,-0.21861 34.76399,-8.55583 34.76399,-8.55583 l -36.51336,11.40339 c 0,0 -2.94686,1.12635 -3.9778,4.62265 -1.03093,3.4963 -14.16562,38.91357 -14.16562,38.91357 z"
       id="path2099" />
    <ellipse
       style="opacity:0.421702;fill:#000000;fill-opacity:1;stroke:#000000;stroke-width:3.36185;stroke-miterlimit:4;stroke-dasharray:none;stroke-opacity:1"
       id="path2352"
       cx="92.11348"
       cy="209.83063"
       rx="3.2799106"
       ry="5.9603481" />
    <ellipse
       style="opacity:0.421702;fill:#000000;fill-opacity:1;stroke:#000000;stroke-width:3.26219;stroke-miterlimit:4;stroke-dasharray:none;stroke-opacity:1"
       id="path2354"
       cx="73.500214"
       cy="153.08061"
       rx="3.4394746"
       ry="5.3979297" />
    <ellipse
       style="opacity:0.421702;fill:#000000;fill-opacity:1;stroke:#000000;stroke-width:3.13127;stroke-miterlimit:4;stroke-dasharray:none;stroke-opacity:1"
       id="path2469"
       cx="121.58969"
       cy="159.88374"
       rx="6.3165126"
       ry="3.6282918" />
    <ellipse
       style="opacity:0.421702;fill:#000000;fill-opacity:1;stroke:#000000;stroke-width:3.04002;stroke-miterlimit:4;stroke-dasharray:none;stroke-opacity:1"
       id="path2469-3"
       cx="121.57168"
       cy="143.16089"
       rx="5.9415736"
       ry="3.6357298" />
    <ellipse
       style="opacity:0.421702;fill:#000000;fill-opacity:1;stroke:#000000;stroke-width:3.04002;stroke-miterlimit:4;stroke-dasharray:none;stroke-opacity:1"
       id="path2469-3-6"
       cx="91.160355"
       cy="134.09357"
       rx="5.9415736"
       ry="3.6357298" />
    <ellipse
       style="opacity:0.421702;fill:#000000;fill-opacity:1;stroke:#000000;stroke-width:2.66975;stroke-miterlimit:4;stroke-dasharray:none;stroke-opacity:1"
       id="path2469-3-7"
       cx="121.30772"
       cy="128.09683"
       rx="5.1281004"
       ry="3.248822" />
    <ellipse
       style="opacity:0.421702;fill:#000000;fill-opacity:1;stroke:#000000;stroke-width:2.89077;stroke-miterlimit:4;stroke-dasharray:none;stroke-opacity:1"
       id="path2469-3-5"
       cx="152.29141"
       cy="150.07568"
       rx="5.4256015"
       ry="3.6001484" />
    <ellipse
       style="opacity:0.421702;fill:#000000;fill-opacity:1;stroke:#000000;stroke-width:3.85958;stroke-miterlimit:4;stroke-dasharray:none;stroke-opacity:1"
       id="path2767"
       cx="177.99734"
       cy="134.54379"
       rx="2.6595612"
       ry="5.1709418"
       transform="rotate(19.180171)" />
    <ellipse
       style="opacity:0.421702;fill:#000000;fill-opacity:1;stroke:#000000;stroke-width:3.85958;stroke-miterlimit:4;stroke-dasharray:none;stroke-opacity:1"
       id="path2767-3"
       cx="192.57916"
       cy="124.9025"
       rx="2.6595612"
       ry="5.1709418"
       transform="rotate(19.180171)" />
    <ellipse
       style="opacity:0.421702;fill:#000000;fill-opacity:1;stroke:#000000;stroke-width:3.85958;stroke-miterlimit:4;stroke-dasharray:none;stroke-opacity:1"
       id="path2767-3-5"
       cx="204.99628"
       cy="114.9987"
       rx="2.6595612"
       ry="5.1709418"
       transform="rotate(19.180171)" />
    <ellipse
       style="opacity:0.421702;fill:#000000;fill-opacity:1;stroke:#000000;stroke-width:3.85958;stroke-miterlimit:4;stroke-dasharray:none;stroke-opacity:1"
       id="path2767-6"
       cx="179.70139"
       cy="159.32947"
       rx="2.6595612"
       ry="5.1709418"
       transform="rotate(19.180171)" />
    <ellipse
       style="opacity:0.421702;fill:#000000;fill-opacity:1;stroke:#000000;stroke-width:3.85958;stroke-miterlimit:4;stroke-dasharray:none;stroke-opacity:1"
       id="path2767-6-2"
       cx="193.27432"
       cy="149.7058"
       rx="2.6595612"
       ry="5.1709418"
       transform="rotate(19.180171)" />
    <ellipse
       style="opacity:0.421702;fill:#000000;fill-opacity:1;stroke:#000000;stroke-width:3.85958;stroke-miterlimit:4;stroke-dasharray:none;stroke-opacity:1"
       id="path2767-6-2-9"
       cx="205.12071"
       cy="141.07607"
       rx="2.6595612"
       ry="5.1709418"
       transform="rotate(19.180171)" />
    <path
       style="fill:none;stroke:#000000;stroke-width:3.465;stroke-linecap:butt;stroke-linejoin:miter;stroke-miterlimit:4;stroke-dasharray:none;stroke-opacity:1"
       d="m 148.6044,133.01335 c 0,0 -4.22234,-10.10193 1.60968,-15.17572 5.83202,-5.07379 36.42428,-32.238356 36.42428,-32.238356 0,0 4.18077,-6.382549 13.49365,-1.304531 9.31288,5.078021 31.20744,14.74933 31.20744,14.74933 0,0 13.21588,5.113657 16.20677,14.767687 2.99089,9.65403 13.84561,40.85553 13.84561,40.85553 0,0 6.28294,10.37764 -1.93517,15.66822 -8.21811,5.29058 -40.45524,23.68553 -40.45524,23.68553 0,0 -6.97518,3.58434 -14.95692,1.8651 -7.98174,-1.71923 -41.23188,-9.52593 -41.23188,-9.52593 l 11.75351,-26.40481 c 0,0 -1.27356,-7.49918 -7.4654,-11.91909 -6.19184,-4.41991 -18.84879,-12.0759 -18.84879,-12.0759 z"
       id="path872" />
    <path
       style="fill:#000000;fill-opacity:1;stroke:#000000;stroke-width:0.264583px;stroke-linecap:butt;stroke-linejoin:miter;stroke-opacity:1"
       d="m 170.3958,173.8525 31.54897,-25.12167 c 0,0 3.66908,-1.30494 2.08078,-6.13068 -1.58831,-4.82573 -10.18732,-41.84038 -10.18732,-41.84038 l 12.38664,42.53427 c 0,0 0.1564,3.68072 4.58715,4.96758 4.43075,1.28686 34.34586,13.33673 34.34586,13.33673 l -36.35003,-11.81004 c 0,0 -2.43914,-1.7255 -7.51534,2.71351 -5.0762,4.43899 -30.89671,21.35068 -30.89671,21.35068 z"
       id="path1033" />
    <ellipse
       style="opacity:0.421702;fill:#000000;fill-opacity:1;stroke-width:3.58913;stroke-miterlimit:4;stroke-dasharray:none"
       id="path1203"
       cx="243.93283"
       cy="26.893961"
       rx="8.1121569"
       ry="6.1471882"
       transform="matrix(0.88836089,0.45914587,0,1,0,0)"
       inkscape:transform-center-x="0.30827009"
       inkscape:transform-center-y="0.57056217" />
    <ellipse
       style="opacity:0.421702;fill:#000000;fill-opacity:1;stroke-width:3.04671;stroke-miterlimit:4;stroke-dasharray:none"
       id="path1346"
       cx="53.972034"
       cy="227.11021"
       rx="4.0368876"
       ry="7.4399643"
       transform="matrix(0.59310982,-0.80512157,0.77386121,0.63335521,0,0)" />
    <ellipse
       style="opacity:0.421702;fill:#000000;fill-opacity:1;stroke-width:3.04671;stroke-miterlimit:4;stroke-dasharray:none"
       id="path1346-3"
       cx="42.360096"
       cy="288.18121"
       rx="4.0368876"
       ry="7.4399643"
       transform="matrix(0.59310982,-0.80512157,0.77386121,0.63335521,0,0)" />
    <ellipse
       style="opacity:0.421702;fill:#000000;fill-opacity:1;stroke-width:3.58913;stroke-miterlimit:4;stroke-dasharray:none"
       id="path1203-6"
       cx="254.35889"
       cy="8.4398499"
       rx="8.1121569"
       ry="6.1471882"
       transform="matrix(0.88836089,0.45914587,0,1,0,0)"
       inkscape:transform-center-x="0.30827009"
       inkscape:transform-center-y="0.57056217" />
    <ellipse
       style="opacity:0.421702;fill:#000000;fill-opacity:1;stroke-width:3.04671;stroke-miterlimit:4;stroke-dasharray:none"
       id="path1346-7"
       cx="62.125504"
       cy="257.19528"
       rx="4.0368876"
       ry="7.4399643"
       transform="matrix(0.59310982,-0.80512157,0.77386121,0.63335521,0,0)" />
    <ellipse
       style="opacity:0.421702;fill:#000000;fill-opacity:1;stroke-width:3.91495;stroke-miterlimit:4;stroke-dasharray:none"
       id="path1586"
       cx="-27.33387"
       cy="216.21074"
       rx="7.0364776"
       ry="5.8415403"
       transform="matrix(0.50766347,-0.86155545,0.86402868,0.50344259,0,0)" />
    <ellipse
       style="opacity:0.421702;fill:#000000;fill-opacity:1;stroke-width:3.91495;stroke-miterlimit:4;stroke-dasharray:none"
       id="path1586-5"
       cx="-0.12300443"
       cy="210.43677"
       rx="7.0364776"
       ry="5.8415403"
       transform="matrix(0.50766347,-0.86155545,0.86402868,0.50344259,0,0)" />
    <ellipse
       style="opacity:0.421702;fill:#000000;fill-opacity:1;stroke-width:2.96991;stroke-miterlimit:4;stroke-dasharray:none"
       id="path1717"
       cx="-243.1452"
       cy="79.917969"
       rx="5.3721714"
       ry="6.2763834"
       transform="matrix(-0.56112217,-0.82773299,0.86527379,-0.50129958,0,0)" />
    <ellipse
       style="opacity:0.421702;fill:#000000;fill-opacity:1;stroke-width:2.96991;stroke-miterlimit:4;stroke-dasharray:none"
       id="path1717-3"
       cx="-255.88571"
       cy="89.638344"
       rx="5.3721714"
       ry="6.2763834"
       transform="matrix(-0.56112217,-0.82773299,0.86527379,-0.50129958,0,0)" />
    <ellipse
       style="opacity:0.421702;fill:#000000;fill-opacity:1;stroke-width:2.96991;stroke-miterlimit:4;stroke-dasharray:none"
       id="path1717-5"
       cx="-268.5614"
       cy="100.16994"
       rx="5.3721714"
       ry="6.2763834"
       transform="matrix(-0.56112217,-0.82773299,0.86527379,-0.50129958,0,0)" />
    <ellipse
       style="opacity:0.421702;fill:#000000;fill-opacity:1;stroke-width:2.96991;stroke-miterlimit:4;stroke-dasharray:none"
       id="path1717-6"
       cx="-245.9731"
       cy="53.986629"
       rx="5.3721714"
       ry="6.2763834"
       transform="matrix(-0.56112217,-0.82773299,0.86527379,-0.50129958,0,0)" />
    <ellipse
       style="opacity:0.421702;fill:#000000;fill-opacity:1;stroke-width:2.96991;stroke-miterlimit:4;stroke-dasharray:none"
       id="path1717-6-2"
       cx="-258.52679"
       cy="62.942429"
       rx="5.3721714"
       ry="6.2763834"
       transform="matrix(-0.56112217,-0.82773299,0.86527379,-0.50129958,0,0)" />
    <ellipse
       style="opacity:0.421702;fill:#000000;fill-opacity:1;stroke-width:2.96991;stroke-miterlimit:4;stroke-dasharray:none"
       id="path1717-6-9"
       cx="-270.12903"
       cy="73.255646"
       rx="5.3721714"
       ry="6.2763834"
       transform="matrix(-0.56112217,-0.82773299,0.86527379,-0.50129958,0,0)" />
  </g>
</svg>
