<?xml version="1.0" encoding="UTF-8" standalone="no"?>
<!-- Created with Inkscape (http://www.inkscape.org/) -->

<svg
   width="18mm"
   height="59mm"
   viewBox="0 0 38 79"
   version="1.1"
   id="svg5"
   inkscape:version="1.1.1 (3bf5ae0, 2021-09-20)"
   sodipodi:docname="groupOfPeopleModified.svg"
   xmlns:inkscape="http://www.inkscape.org/namespaces/inkscape"
   xmlns:sodipodi="http://sodipodi.sourceforge.net/DTD/sodipodi-0.dtd"
   xmlns="http://www.w3.org/2000/svg"
   xmlns:svg="http://www.w3.org/2000/svg">
  <sodipodi:namedview
     id="namedview7"
     pagecolor="#ffffff"
     bordercolor="#999999"
     borderopacity="1"
     inkscape:pageshadow="0"
     inkscape:pageopacity="0"
     inkscape:pagecheckerboard="0"
     inkscape:document-units="mm"
     showgrid="false"
     inkscape:zoom="0.7447531"
     inkscape:cx="353.13717"
     inkscape:cy="364.55035"
     inkscape:window-width="1854"
     inkscape:window-height="1011"
     inkscape:window-x="66"
     inkscape:window-y="32"
     inkscape:window-maximized="1"
     inkscape:current-layer="layer2" />
  <defs
     id="defs2" />
  <g
     inkscape:groupmode="layer"
     id="layer2"
     inkscape:label="Drawing">
    <path
       style="fill:#d5a886;fill-opacity:1;stroke:none;stroke-width:0.264583px;stroke-linecap:butt;stroke-linejoin:miter;stroke-opacity:1"
       d="m 23.411472,63.354359 c 0.107498,-0.0191 1.660046,-0.120771 1.747015,0.103532 0.08697,0.224303 0.695613,0.347908 0.08635,0.577011 -0.60927,0.229103 0.02172,0.475993 -0.509776,0.804995 -0.531497,0.329001 -1.619181,0.428389 -2.230276,0.279244 -0.611092,-0.149149 0.90669,-1.764782 0.90669,-1.764782 z"
       id="path5357" />
    <path
       style="fill:#efeee4;fill-opacity:1;stroke:none;stroke-width:0.264583px;stroke-linecap:butt;stroke-linejoin:miter;stroke-opacity:1"
       d="m 24.296368,60.853139 c 0,0 0.628971,1.543788 0.850773,2.101541 0.221801,0.557755 -0.503203,1.125921 -1.060423,1.125921 -0.557218,0 -0.809265,0.466048 -1.156817,0.466048 -0.347554,0 -0.898935,-0.144638 -0.898935,-0.318765 0,-0.174125 -0.01812,-3.878453 -0.01812,-3.878453 z"
       id="path5226" />
    <path
       style="fill:#d2a77d;fill-opacity:1;stroke:none;stroke-width:0.264583px;stroke-linecap:butt;stroke-linejoin:miter;stroke-opacity:1"
       d="m 24.016431,57.689659 c 0,0 0.105379,2.090804 0.358913,2.633253 0.253534,0.542446 0.37233,1.244512 0.37233,1.244512 0,0 -0.437907,0.598403 -1.239092,0.423606 -0.801185,-0.174794 -2.201992,-0.906243 -2.222648,-1.561018 -0.02066,-0.654777 0.263009,-1.657826 0.263009,-1.657826 z"
       id="path5096" />
    <path
       style="fill:#cca886;fill-opacity:1;stroke:none;stroke-width:0.264583px;stroke-linecap:butt;stroke-linejoin:miter;stroke-opacity:1"
       d="m 20.096793,67.444577 c 0,0 -0.396644,-0.331436 -0.589089,0.388117 -0.192447,0.719553 -0.197641,0.864219 0.714854,0.955493 0.912497,0.09127 1.074126,0.0011 1.519182,-0.0966 0.445053,-0.0976 0.654595,-0.786265 0.721206,-0.87508 0.06661,-0.08882 -0.781084,-0.528471 -0.781084,-0.528471 z"
       id="path4967" />
    <path
       style="fill:#efece8;fill-opacity:1;stroke:none;stroke-width:0.264583px;stroke-linecap:butt;stroke-linejoin:miter;stroke-opacity:1"
       d="m 19.507704,67.832694 c 0.122751,-0.237961 0.232508,-0.909997 0.710634,-1.138327 0.478123,-0.22833 1.182856,-0.380913 1.692261,-0.10686 0.509405,0.274053 0.51766,0.315174 0.80363,0.291446 0.28597,-0.02373 0.281006,-0.0013 0.342633,0.674153 0.06163,0.675354 -0.0041,0.995519 -0.428887,1.02566 -0.42476,0.03014 0.01262,-0.140004 -0.42476,-0.403683 -0.437382,-0.263681 -0.79979,-0.309133 -1.435272,-0.309133 -0.635479,0 -1.260239,-0.03326 -1.260239,-0.03326 z"
       id="path4712" />
    <path
       style="fill:#cfa677;fill-opacity:1;stroke:none;stroke-width:0.264583px;stroke-linecap:butt;stroke-linejoin:miter;stroke-opacity:1"
       d="m 20.46956,61.781303 0.09215,5.182767 c 0,0 0.864283,-0.151347 1.415569,0.02713 0.551288,0.178486 0.739857,-0.191685 0.739857,-0.191685 0,0 -0.142182,-0.491826 -0.0308,-1.221817 0.111381,-0.729988 -0.407914,-4.135379 -0.407914,-4.135379 z"
       id="path4839" />
    <path
       style="fill:#eeeeee;fill-opacity:1;stroke:none;stroke-width:0.264583px;stroke-linecap:butt;stroke-linejoin:miter;stroke-opacity:1"
       d="m 16.633797,34.086942 c 0,0 -1.083876,0.798627 -0.280527,3.083018 0.803346,2.284391 0.104283,1.796346 0.998188,4.550881 0.893903,2.754537 0.739651,3.867044 0.921068,6.340903 0.181414,2.47386 0.669898,8.307795 0.679579,10.136011 0.0097,1.828215 0.344297,3.294507 0.255482,3.865313 -0.08882,0.570804 2.71866,0.633228 3.137665,0.46005 0.419004,-0.173181 0.347548,-3.5877 0.257042,-6.02029 -0.0905,-2.432589 0.01622,-1.920382 -0.07905,-4.455802 -0.09527,-2.535423 0.249283,-3.402701 -0.107113,-6.169494 -0.356397,-2.766793 -0.364295,-5.297053 -0.09758,-6.357027 0.26671,-1.059976 0.08349,1.51093 0.439753,2.685738 0.356264,1.174808 0.682194,0.396092 0.682186,2.734614 -8e-6,2.33852 -0.0658,3.137845 -0.242488,5.155131 -0.121886,1.391591 -0.854923,3.22406 -1.229002,4.716857 -0.168196,0.671204 -0.489936,1.46069 -0.267229,1.75643 0.933247,1.239285 1.741018,3.023884 2.563994,2.313372 0.822973,-0.710509 1.321554,-2.347037 1.787213,-4.250806 0.465656,-1.903767 1.755815,-7.233703 2.00534,-9.20605 0.24952,-1.97235 0.601197,-5.677345 0.639227,-7.728519 0.038,-2.051174 -0.005,-2.620021 -0.314567,-4.337923 -0.30939,-1.717903 -0.976244,-3.763261 -4.063902,-2.768574 -3.087658,0.994691 -7.68527,3.496167 -7.68527,3.496167 z"
       id="path4586"
       sodipodi:nodetypes="cssssssssssssssssssccscc" />
    <path
       style="fill:#cfbaa3;fill-opacity:1;stroke:none;stroke-width:0.264583px;stroke-linecap:butt;stroke-linejoin:miter;stroke-opacity:1"
       d="m 25.013797,12.134593 c 0,0 1.998276,1.50701 3.131451,2.042517 1.133164,0.535508 2.414228,-0.202304 3.137882,1.70552 0.723657,1.907823 0.991284,3.449861 1.019074,4.864844 0.0278,1.414984 -0.166187,3.187262 0.35946,4.242795 0.525647,1.055533 1.001474,1.394428 0.507737,2.697548 -0.493737,1.303121 0.0288,1.711037 0.282567,2.314178 0.25374,0.603145 -1.459461,1.291379 -1.921218,1.582066 -0.461767,0.290687 -0.18287,1.165511 -0.961184,2.512854 -0.778327,1.347343 -2.984845,3.631834 -3.972516,4.166155 -0.987668,0.534321 -2.733593,0.90201 -2.733593,0.90201 l -0.963036,-6.284397 c 0,0 -1.691639,6.369212 -1.915832,6.092722 -0.224192,-0.27649 -2.094587,-0.02728 -3.149401,-1.437135 -1.054817,-1.409848 -2.327423,-1.874361 -2.653665,-3.150139 -0.326242,-1.275779 -1.000368,-1.090608 -0.867145,-2.370902 0.133225,-1.280293 -0.445675,-1.581825 -1.040162,-2.449486 -0.594487,-0.867662 0.347337,-2.498106 0.655547,-3.511758 0.308213,-1.013652 0.546008,-3.363681 0.820669,-5.619147 0.274664,-2.255465 -0.297616,-4.073001 0.50069,-4.855254 0.798306,-0.782252 2.951583,-2.164069 3.355914,-1.995143 0.404328,0.168926 0.208777,-8.3740174 0.208777,-8.3740174 l 5.100948,0.1033046 1.305944,4.002799 z"
       id="path4461"
       sodipodi:nodetypes="cssssscsssccssssssssscccc" />
    <path
       style="fill:#d3a77e;fill-opacity:1;stroke:none;stroke-width:0.264583px;stroke-linecap:butt;stroke-linejoin:miter;stroke-opacity:1"
       d="m 17.948874,6.8082612 0.447043,4.2299478 c 0,0 2.631834,4.005589 2.955451,4.361136 0.323617,0.355548 0.486079,0.329507 0.715934,1.063377 0.229854,0.73387 0.561593,0.856385 0.8159,1.859776 0.254305,1.003391 0.462352,1.687638 0.482262,2.321164 0.01992,0.633525 0.545414,0.999203 1.239422,-0.500717 0.694005,-1.499919 0.934307,-1.659963 1.034833,-3.133715 0.100528,-1.473751 -0.406667,-2.835943 -0.347718,-4.037491 0.05895,-1.201547 -0.361823,-6.7489433 -0.361823,-6.7489433 L 23.047964,4.5954555 20.863088,4.4107695 18.815813,5.2104236 Z"
       id="path4337" />
    <path
       style="fill:#432719;fill-opacity:1;stroke:none;stroke-width:0.264583px;stroke-linecap:butt;stroke-linejoin:miter;stroke-opacity:1"
       d="m 20.960182,12.444175 c 0,0 0.26652,5.951057 0.571124,7.068441 0.304604,1.117384 -5.123836,0.244634 -5.358209,-0.582388 -0.234374,-0.827021 1.811239,-5.518554 1.609989,-7.345201 -0.20125,-1.8266464 -0.613124,-4.762685 0.166235,-5.7215606 0.77936,-0.958876 1.754669,-2.3077091 3.308215,-2.0556127 1.553546,0.2520963 3.443727,0.3860538 3.885142,2.0966114 0.441415,1.7105577 0.301945,3.9249718 0.927446,5.3198739 0.625502,1.394903 0.238676,1.826172 0.908627,2.205929 0.669952,0.379758 -2.666553,0.342754 -2.701885,-0.862439 -0.03533,-1.205193 -0.166296,-2.6933865 0.10699,-3.1833599 0.273288,-0.4899737 0.817689,-2.0613963 -0.05979,-1.7400982 -0.877474,0.3212979 -1.378738,0.947106 -1.66729,-0.1536035 -0.288555,-1.1007096 -0.291883,-2.4409321 -1.585635,-2.4304067 -1.293751,0.010525 -2.305677,0.5040799 -2.436833,1.0845715 -0.131157,0.5804914 -0.472025,3.0781334 -0.0098,3.7462973 0.462219,0.6681645 0.436342,0.4528885 0.63441,1.2111425 0.198067,0.758254 0.04031,1.467611 0.771435,1.424561 0.731128,-0.04305 0.929833,-0.08276 0.929833,-0.08276 z"
       id="path1017" />
    <path
       style="fill:#000306;fill-opacity:1;stroke:none;stroke-width:0.264583px;stroke-linecap:butt;stroke-linejoin:miter;stroke-opacity:1"
       d="m 17.13137,8.4835486 c 0.04225,-0.076627 0.648009,-0.8036912 1.407358,-0.5736725 0.759352,0.2300187 0.724308,0.1842405 0.907484,0.071102 0.183176,-0.1131388 0.355253,-0.8562367 0.889574,-0.7547753 0.534321,0.1014614 0.457676,0.015512 0.813845,0.073196 0.356166,0.057685 2.597002,0.2097031 2.597002,0.2097031 L 23.558911,8.0869776 22.830394,7.7553689 21.122763,7.6039376 c 0,0 0.120459,1.186712 -0.202713,1.319412 C 20.596877,9.0560495 19.9379,9.2833617 19.714031,8.9796746 19.490159,8.6759888 19.367861,8.466547 19.367861,8.466547 l -0.471448,0.00225 c 0,0 0.08234,0.6291511 -0.05208,0.7600926 -0.134417,0.1309404 -0.310156,0.2757628 -0.64987,0.2222328 -0.339714,-0.05353 -0.954696,-0.3400594 -0.97513,-0.4598617 -0.02043,-0.1198023 -0.08796,-0.5077193 -0.08796,-0.5077193 z"
       id="path2608" />
  </g>
</svg>
