<?xml version="1.0" encoding="UTF-8" standalone="no"?>
<!-- Created with Inkscape (http://www.inkscape.org/) -->

<svg
   width="312mm"
   height="215mm"
   viewBox="0 0 312 215"
   version="1.1"
   id="svg5"
   inkscape:version="1.1.1 (3bf5ae0, 2021-09-20)"
   sodipodi:docname="manAndDog.svg"
   xmlns:inkscape="http://www.inkscape.org/namespaces/inkscape"
   xmlns:sodipodi="http://sodipodi.sourceforge.net/DTD/sodipodi-0.dtd"
   xmlns="http://www.w3.org/2000/svg"
   xmlns:svg="http://www.w3.org/2000/svg">
  <sodipodi:namedview
     id="namedview7"
     pagecolor="#ffffff"
     bordercolor="#999999"
     borderopacity="1"
     inkscape:pageshadow="0"
     inkscape:pageopacity="0"
     inkscape:pagecheckerboard="0"
     inkscape:document-units="mm"
     showgrid="false"
     inkscape:zoom="2.1064798"
     inkscape:cx="632.33456"
     inkscape:cy="395.2091"
     inkscape:window-width="1854"
     inkscape:window-height="1011"
     inkscape:window-x="66"
     inkscape:window-y="32"
     inkscape:window-maximized="1"
     inkscape:current-layer="layer2" />
  <defs
     id="defs2" />
  <g
     inkscape:groupmode="layer"
     id="layer2"
     inkscape:label="Drawing"
     style="display:inline">
    <path
       style="fill:#cfb179;fill-opacity:1;stroke:none;stroke-width:0.264583px;stroke-linecap:butt;stroke-linejoin:miter;stroke-opacity:1"
       d="m 134.76806,128.87921 c 0,0 -0.7154,-0.46471 -1.3572,-1.43933 -0.6418,-0.97462 -1.09723,-3.1318 -0.7573,-3.1318 0.33993,0 0.3562,-0.0431 1.54951,0.40597 1.19331,0.44912 3.27089,1.2495 4.07821,1.43758 0.80732,0.18808 9.33713,2.49656 9.33713,2.49656 0,0 4.59724,-5.09689 5.73846,-5.97878 1.14123,-0.88189 1.55546,-0.60152 3.35983,-0.60152 1.80437,0 3.00122,-0.091 5.05125,0.49255 2.05003,0.58357 6.03829,1.73462 7.90389,-0.0631 1.8656,-1.79766 2.75512,-2.41117 3.84398,-2.84684 1.08887,-0.43569 2.75175,-0.53232 3.85911,-0.0958 1.10736,0.43648 2.37584,0.48274 2.36396,1.63614 -0.0119,1.15339 -0.20579,0.90798 0.46382,1.63193 0.66961,0.72395 0.74316,0.75692 1.12813,0.72395 0.38497,-0.033 0.88926,0.003 0.69968,0.62717 -0.18959,0.62396 -1.53972,2.44389 -2.36571,2.83548 -0.826,0.39158 -2.57829,-0.25637 -2.94534,-0.16014 -0.36706,0.0962 -0.94709,0.60762 -1.01051,1.08164 -0.0634,0.47403 -0.71002,3.41312 -1.07418,4.04629 -0.36415,0.63316 -1.85065,2.26224 -2.05509,2.5069 -0.20444,0.24466 -1.29908,0.34025 -0.57739,1.24933 0.72169,0.90909 1.0831,1.45402 1.86888,1.89466 0.78577,0.44064 1.42592,0.73796 1.45644,1.3217 0.0305,0.58374 0.40169,1.70897 1.26376,2.03967 0.86206,0.3307 1.10767,0.42892 1.52458,0.62936 0.41691,0.20044 0.32122,0.72594 -0.43123,0.94919 -0.75245,0.22325 -0.94525,0.45057 -1.54384,0.27768 -0.5986,-0.1729 -0.91072,-0.41601 -1.23676,-1.30227 -0.32605,-0.88626 -0.63466,-1.31128 -1.29477,-1.40606 -0.6601,-0.0948 -1.25762,-0.28939 -2.18143,-0.59146 -0.92382,-0.30207 -1.81759,-0.90968 -2.30306,-1.51147 -0.48548,-0.60178 -0.716,-1.47512 -1.5043,-0.97347 -0.78831,0.50165 -0.73583,0.53 -1.04756,1.3499 -0.31173,0.81991 -0.75988,0.57081 -0.37497,1.55204 0.38491,0.98123 -0.11971,1.73936 -0.18251,2.25086 -0.0628,0.51149 -0.38794,0.67399 0.13767,1.21179 0.52561,0.53779 1.22501,0.56461 1.10046,0.83438 -0.12456,0.26978 -2.46963,0.8694 -2.83949,0.26521 -0.36986,-0.60418 0.23522,-1.07869 0.35791,-1.645 0.12268,-0.56632 -0.41818,-1.32208 -0.34,-2.80611 0.0782,-1.48403 -0.15725,-3.21792 -0.49883,-4.2406 -0.34158,-1.02268 -0.51219,-1.56335 -1.99386,-1.32839 -1.48167,0.23495 -2.24012,0.19256 -3.04536,-0.0203 -0.80524,-0.21282 -0.69866,-0.20542 -1.35083,-0.79719 -0.65218,-0.59178 -1.87516,-1.15385 -2.31012,-0.21174 -0.43496,0.9421 -0.16954,1.5128 -0.6146,2.00387 -0.44505,0.49107 -0.94084,1.2064 -1.97563,1.71774 -1.03479,0.51135 -2.02551,0.67863 -2.82852,0.2534 -0.80302,-0.42524 -0.81831,-0.58926 -2.66719,-0.15329 -1.84888,0.43597 -2.36018,1.76697 -2.84561,2.84597 -0.48542,1.079 -0.16514,1.33385 -0.16514,2.2196 0,0.88576 -0.25099,1.71234 -0.78146,1.31177 -0.53048,-0.40056 -0.40874,-1.98766 0.0716,-3.71961 0.4803,-1.73196 -0.29629,-1.95344 1.40567,-4.11627 1.70197,-2.16283 2.58904,-3.16553 3.0679,-3.98503 0.47886,-0.81949 -0.60214,-3.00359 -0.60214,-3.00359 l -4.73068,1.46844 -3.50647,0.70962 c 0,0 -3.38611,-0.43578 -4.29271,-2.14923 z"
       id="path2043" />
    <path
       style="fill:#7f7f7f;fill-opacity:1;stroke:none;stroke-width:0.264583px;stroke-linecap:butt;stroke-linejoin:miter;stroke-opacity:1"
       d="m 146.33844,128.43193 c 0,0 -0.19658,4.87654 0.1604,6.09141 0.35698,1.21487 -1.09673,3.65911 -0.0888,4.72254 1.00797,1.06343 3.85718,0.6731 3.85718,0.6731 l 1.46028,-0.15852 c 0,0 -0.11821,-1.80641 -0.61859,-4.12508 -0.50038,-2.31867 -0.10689,-2.40626 -0.0617,-4.15906 0.0452,-1.7528 0.73362,-4.86121 0.7733,-5.05765 0.0397,-0.19645 2.3479,-2.61739 -0.80147,-1.45878 -3.14938,1.15862 -4.68068,3.47204 -4.68068,3.47204 z"
       id="path54405" />
    <path
       style="fill:#807f7f;fill-opacity:1;stroke:none;stroke-width:0.264583px;stroke-linecap:butt;stroke-linejoin:miter;stroke-opacity:1"
       d="m 136.45443,133.04631 c 0,0 -0.0116,-1.75331 1.6555,-2.764 1.66707,-1.01069 2.52812,-2.27384 4.5618,-3.07899 2.03369,-0.80515 2.77391,-1.04618 3.15604,-1.31679 0.38213,-0.27061 0.12558,-0.48576 0.12558,-1.4465 0,-0.96075 -0.43933,-2.96822 -1.04873,-4.17235 -0.60939,-1.20413 -1.35036,-4.2331 -1.9728,-5.10275 -0.62244,-0.86965 -1.27274,-0.85633 -1.29494,-1.97034 -0.0222,-1.11401 -0.64286,-2.74667 -0.0779,-3.25813 0.565,-0.51146 1.76875,-0.95191 2.81464,-0.4709 1.04588,0.48101 4.20242,0.88126 5.30015,1.26706 1.09772,0.3858 2.1494,-0.53604 2.43812,0.93106 0.28872,1.4671 0.44031,4.69381 0.24069,5.50861 -0.19961,0.8148 -0.27385,2.29218 -0.0877,3.77975 0.18614,1.48757 0.61721,5.95819 -0.0535,6.50068 -0.6707,0.5425 -1.29006,1.15794 -2.58377,1.79239 -1.29371,0.63446 -2.96774,1.11103 -4.22178,1.87845 -1.25404,0.76741 -1.79121,1.22231 -2.96427,1.71381 -1.17305,0.49149 -1.37522,0.84573 -2.11073,1.21274 -0.73551,0.367 -1.45375,0.97128 -1.93204,1.04322 -0.47828,0.0719 -1.94441,-2.04702 -1.94441,-2.04702 z"
       id="path1913" />
    <path
       style="fill:#f0f0ee;fill-opacity:1;stroke:none;stroke-width:0.264583px;stroke-linecap:butt;stroke-linejoin:miter;stroke-opacity:1"
       d="m 146.39609,86.856294 0.95827,-2.024872 5.21691,1.413552 -1.36053,0.457996 c 0,0 1.20776,3.55191 1.28471,4.246587 0.077,0.694676 0.58113,1.408821 0.53813,2.547477 -0.043,1.138658 -0.073,1.779886 -0.002,2.03976 0.071,0.259874 -3.36363,-5.379352 -3.36363,-5.379352 0,0 -1.4986,-0.986647 -1.66241,-1.086808 -0.16381,-0.100163 -2.41003,-0.216855 -2.41003,-0.216855 z"
       id="path1234" />
    <path
       style="fill:#d5ac96;fill-opacity:1;stroke:none;stroke-width:0.264583px;stroke-linecap:butt;stroke-linejoin:miter;stroke-opacity:1"
       d="m 152.84485,80.668145 c 0,0 0.80983,0.879432 0.87897,1.372036 0.0692,0.492602 -0.23198,0.524714 -0.0113,0.904989 0.22071,0.380275 0.91262,0.750067 1.14771,1.058847 0.2351,0.308779 0.37998,0.648065 0.0641,0.853339 -0.31585,0.205272 -0.53616,0.09981 -0.48785,0.741865 0.0483,0.642059 0.26757,2.212144 0.14061,2.292758 -0.12697,0.08061 -0.37776,0.133643 -0.94796,0.148293 -0.5702,0.01466 -1.33736,0.107173 -1.49376,0.364284 -0.15639,0.257114 -0.13054,0.89235 -0.5759,0.250955 -0.44536,-0.641393 -0.1779,-0.949728 -1.17169,-1.291413 -0.99379,-0.341683 -1.45374,-0.353214 -1.90413,-0.609171 -0.45039,-0.255958 -1.12929,-1.923505 -1.12929,-1.923505 l 0.0564,-1.35848 c 0,0 1.18238,-2.273133 1.24518,-2.350783 0.0628,-0.07765 1.92458,-1.419026 1.92458,-1.419026 l 0.93459,-0.265904 z"
       id="path1111" />
    <path
       style="fill:#b74e22;fill-opacity:1;stroke:none;stroke-width:0.264583px;stroke-linecap:butt;stroke-linejoin:miter;stroke-opacity:1"
       d="m 148.03332,86.498969 c 0,0 -2.12624,-0.837774 -1.96268,-2.682224 0.16356,-1.844448 0.72856,-2.860633 1.24386,-3.366059 0.5153,-0.505423 0.53348,-0.715129 1.39351,-0.851701 0.86003,-0.136576 1.05439,0.0063 1.64742,-0.285494 0.59304,-0.291801 1.14371,-0.520599 1.7164,-0.291801 0.57269,0.228801 0.99427,0.596011 0.89949,0.954569 -0.0948,0.358556 -0.12647,0.691888 -0.12647,0.691888 0,0 -0.38828,-0.314153 -0.83958,-0.344185 -0.4513,-0.03003 -0.34463,-0.225963 -0.50661,0.336589 -0.16198,0.562555 0.009,0.453634 0.009,0.840039 0,0.386408 -0.23165,0.01714 -0.17562,0.790247 0.056,0.773102 -0.0701,1.570918 -0.0701,1.488125 0,-0.08279 -0.20765,-0.805246 -0.75466,-1.103961 -0.54701,-0.298714 -1.456,-0.433924 -1.50311,0.141537 -0.0471,0.57546 -0.17496,1.023186 0.30811,1.442624 0.48307,0.419439 0.39582,0.408493 0.058,0.794274 -0.33787,0.385784 -1.33681,1.445533 -1.33681,1.445533 z"
       id="path989" />
    <path
       style="fill:#d1b27b;fill-opacity:1;stroke:none;stroke-width:0.264583px;stroke-linecap:butt;stroke-linejoin:miter;stroke-opacity:1"
       d="m 144.13912,87.2331 c 0,0 -0.7263,0.212416 -1.19285,0.920303 -0.46656,0.707887 -0.50896,0.915633 -1.17338,1.344679 -0.66441,0.429043 -1.35287,0.828227 -0.85697,1.721921 0.49591,0.893696 1.10189,0.932392 1.45981,1.246719 0.35793,0.314328 -0.48931,2.494907 -0.81026,3.830805 -0.32094,1.335897 -0.6939,5.813203 -0.9771,7.099293 -0.28321,1.28608 -0.81239,2.96188 -0.81239,3.91891 0,0.95702 -0.56622,3.2493 0.8227,3.90367 1.38891,0.65438 1.01424,0.49887 2.72907,0.72373 1.71483,0.22486 -1.20339,-0.15 3.16974,0.60332 4.37312,0.75331 4.32032,1.44327 5.83148,1.32432 1.51115,-0.11895 1.53945,0.42242 1.4145,-3.10851 -0.12495,-3.53094 0.7432,-6.79626 0.0198,-10.33857 -0.72334,-3.542302 -1.3902,-4.692464 -1.48441,-5.49952 -0.0942,-0.807059 -1.09615,-2.688029 -1.09615,-3.61282 0,-0.924787 -0.038,-1.858285 -1.34113,-2.672455 -1.30313,-0.814171 -3.18693,-2.094997 -5.70252,-1.405795 z"
       id="path1358" />
    <path
       style="fill:#eeeeee;fill-opacity:1;stroke:none;stroke-width:0.264583px;stroke-linecap:butt;stroke-linejoin:miter;stroke-opacity:1"
       d="m 144.43396,104.66451 c 0,-0.36514 -0.0819,-3.01441 -0.0191,-3.73108 0.0628,-0.71667 -0.26388,-1.168835 -0.32786,-3.021064 -0.064,-1.852232 -1.34896,-3.032117 -0.3172,-4.444481 1.03176,-1.412365 1.18107,-2.293044 2.59111,-2.625117 1.41005,-0.332073 1.61757,-0.341722 2.82566,0.45484 1.20808,0.79656 1.65966,1.092443 1.54079,2.411029 -0.11886,1.318588 -0.0399,2.876383 -0.78428,4.58081 -0.74442,1.704425 -0.61523,2.619783 -0.61523,3.551823 0,0.93203 0.24452,1.70986 0.0845,2.56094 -0.16007,0.85107 -0.49836,0.83208 -1.84179,0.76738 -1.34343,-0.0647 -3.13655,-0.50508 -3.13655,-0.50508 z"
       id="path1483" />
    <path
       style="fill:#d6ad95;fill-opacity:1;stroke:none;stroke-width:0.264583px;stroke-linecap:butt;stroke-linejoin:miter;stroke-opacity:1"
       d="m 145.65247,104.16198 c 0,0 -0.15964,0.33489 -0.0306,1.83717 0.12909,1.50228 0.68782,2.555 0.94488,4.17082 0.25706,1.61583 0.72073,1.57401 0.38542,3.23544 -0.33531,1.66143 -0.7352,2.60229 -0.92418,3.36006 -0.18898,0.75778 -0.37077,0.97599 0.62591,1.29348 0.99667,0.31749 1.6666,0.78329 2.31416,-0.23092 0.64755,-1.01421 0.82574,-4.14727 0.71224,-5.50684 -0.1135,-1.35957 -0.2095,-2.12174 -0.55107,-4.03039 -0.34157,-1.90865 -0.47962,-3.33983 -0.7314,-3.891 -0.25177,-0.55118 -2.74541,-0.23782 -2.74541,-0.23782 z"
       id="path1529" />
    <path
       style="fill:#977663;fill-opacity:1;stroke:none;stroke-width:0.264583px;stroke-linecap:butt;stroke-linejoin:miter;stroke-opacity:1"
       d="m 132.06591,136.70127 -1.12698,0.34187 -0.75121,-1.6146 c 0,0 -0.27075,-0.51767 0.27241,-0.98572 0.54315,-0.46806 0.43322,-0.94382 1.53107,-1.03371 1.09785,-0.0899 0.87213,0.13919 2.15786,-0.62957 1.28572,-0.76876 2.26801,-1.28819 2.26801,-1.28819 0,0 2.34305,3.34906 2.34305,3.85697 0,0.5079 -1.87842,2.33303 -2.16657,3.49348 -0.28814,1.16045 -0.7197,1.31626 0.0571,2.22005 0.77676,0.90378 0.89366,1.82132 0.51451,2.31191 -0.37915,0.4906 -0.81858,0.59528 -1.46368,-0.0774 -0.64509,-0.67273 -2.31183,-1.97089 -2.66109,-2.85821 -0.34926,-0.88732 -0.41074,-2.1151 -0.41074,-2.59179 0,-0.47669 -0.5637,-1.14504 -0.5637,-1.14504 z"
       id="path1656" />
    <path
       style="fill:#987764;fill-opacity:1;stroke:none;stroke-width:0.264583px;stroke-linecap:butt;stroke-linejoin:miter;stroke-opacity:1"
       d="m 146.41008,139.24588 c 0.29378,-0.12426 0.26767,-0.54666 2.20537,-0.63848 1.9377,-0.0918 2.19689,-0.39174 2.9107,-0.25336 0.71381,0.13838 0.75866,-0.19539 1.01886,1.03524 0.26019,1.23063 0.092,2.3014 0.57838,2.95106 0.48642,0.64966 0.0648,0.6276 1.37214,0.80576 1.30736,0.17815 2.20346,-0.0166 2.26195,0.4254 0.0585,0.44204 0.74954,0.64986 -0.65141,1.25484 -1.40096,0.60498 -3.10272,0.48964 -3.84918,0.3426 -0.74646,-0.14704 -1.53609,-0.34731 -1.53609,-0.34731 0,0 -0.39274,0.47058 -0.44295,0.63131 -0.0502,0.16073 -1.16629,0.17725 -1.80438,-0.0258 -0.63809,-0.20305 -1.27914,0.20767 -1.60709,-0.20616 -0.32795,-0.41383 -0.26188,-0.0144 0.0595,-1.54139 0.32142,-1.52695 0.46944,-1.74752 0.19405,-2.86091 -0.27539,-1.1134 -0.70989,-1.5728 -0.70989,-1.5728 z"
       id="path1784" />
  </g>
</svg>
