<?xml version="1.0" encoding="UTF-8" standalone="no"?>
<!-- Created with Inkscape (http://www.inkscape.org/) -->

<svg
   width="352mm"
   height="277mm"
   viewBox="0 0 352 277"
   version="1.1"
   id="svg5"
   inkscape:version="1.1.1 (3bf5ae0, 2021-09-20)"
   sodipodi:docname="postman.svg"
   xmlns:inkscape="http://www.inkscape.org/namespaces/inkscape"
   xmlns:sodipodi="http://sodipodi.sourceforge.net/DTD/sodipodi-0.dtd"
   xmlns="http://www.w3.org/2000/svg"
   xmlns:svg="http://www.w3.org/2000/svg">
  <defs
     id="defs2" />
  <g
     inkscape:groupmode="layer"
     id="layer2"
     inkscape:label="Drawing"
     style="display:inline">
    <path
       style="fill:#ef8877;fill-opacity:0.976471;stroke:#000000;stroke-width:0.965;stroke-linecap:butt;stroke-linejoin:miter;stroke-miterlimit:4;stroke-dasharray:none;stroke-opacity:1"
       d="m 35.784689,154.05792 c 0,0 -3.888563,-33.74958 12.276603,-42.27687 48.92839,-0.22467 48.92839,-0.22467 48.92839,-0.22467 0,0 -17.424945,9.17883 -12.436959,42.46607 -48.626731,0.12135 -48.768034,0.0355 -48.768034,0.0355 z"
       id="path1063" />
    <path
       style="fill:#cc625b;fill-opacity:0.976471;stroke:#000000;stroke-width:0.965;stroke-linecap:butt;stroke-linejoin:miter;stroke-miterlimit:4;stroke-dasharray:none;stroke-opacity:1"
       d="m 84.552723,154.02245 29.871227,-8.89804 c 0,0 -6.01132,-36.75119 -17.434268,-33.56803 -1.755968,0.48932 -4.506982,2.826 -6.259806,5.27736 -6.922965,9.68191 -8.95055,31.22235 -6.177153,37.18871 z"
       id="path857"
       sodipodi:nodetypes="ccssc" />
    <rect
       style="opacity:0.802828;fill:#ffffff;fill-opacity:1;stroke:#000000;stroke-width:1.23929;stroke-miterlimit:4;stroke-dasharray:none;stroke-opacity:1"
       id="rect4634"
       width="39.348541"
       height="24.496244"
       x="77.017723"
       y="142.96936"
       ry="0.45196879"
       transform="matrix(0.98069197,-0.19555883,0.19880785,0.98003849,0,0)" />
    <path
       style="fill:none;stroke:#000000;stroke-width:0.965;stroke-linecap:butt;stroke-linejoin:miter;stroke-miterlimit:4;stroke-dasharray:none;stroke-opacity:1"
       d="m 103.95409,125.05398 c 0,0 19.06364,8.95506 22.17998,8.28838 3.11635,-0.66669 16.40882,-15.98334 16.40882,-15.98334 z"
       id="path4776" />
    <path
       style="fill:#f08975;fill-opacity:0.976471;stroke:#000000;stroke-width:0.965;stroke-linecap:butt;stroke-linejoin:miter;stroke-miterlimit:4;stroke-dasharray:none;stroke-opacity:1"
       d="m 84.552723,154.02245 c 0,0 30.577887,10.26851 38.409477,4.59362 7.83159,-5.6749 4.44732,-8.72361 -8.53825,-13.49166 -30.292711,9.27091 -29.871227,8.89804 -29.871227,8.89804 z"
       id="path13941"
       sodipodi:nodetypes="cscc" />
    <path
       style="fill:#c9625b;fill-opacity:0.976471;stroke:#000000;stroke-width:0.465;stroke-linecap:butt;stroke-linejoin:miter;stroke-miterlimit:4;stroke-dasharray:none;stroke-opacity:1"
       d="m 56.518997,154.10463 -0.02387,3.58669 27.175107,-0.11569 3.346543,-2.71474 -2.464046,-0.83844 z"
       id="path14293" />
    <path
       style="fill:#999c9b;fill-opacity:0.976471;stroke:#000000;stroke-width:0.565;stroke-linecap:butt;stroke-linejoin:miter;stroke-miterlimit:4;stroke-dasharray:none;stroke-opacity:1"
       d="m 65.263519,157.78264 10.294937,0.0106 -0.149479,77.0402 -10.302214,-0.35515 z"
       id="path19162" />
    <path
       style="fill:#728ea2;fill-opacity:0.976471;stroke:#49161d;stroke-width:1.365;stroke-linecap:butt;stroke-linejoin:miter;stroke-miterlimit:4;stroke-dasharray:none;stroke-opacity:0.976471"
       d="m 164.82504,131.5358 c 0,0 -3.02419,8.41523 -0.86358,13.97676 28.64452,9.57908 28.38049,9.65222 28.38049,9.65222 0,0 11.71139,3.1058 15.86154,-2.87838 4.15016,-5.98419 4.15016,-5.98419 4.15016,-5.98419 0,0 -1.35603,21.22925 -2.25021,28.34338 -0.89417,7.11413 -1.99352,13.99889 -1.99352,13.99889 0,0 -4.51865,0.31946 3.82821,2.03739 8.34685,1.71794 18.68034,5.75625 18.92776,-1.31283 0.24742,-7.06908 0.72226,-11.47229 0.72226,-11.47229 0,0 -1.75266,15.52051 6.5278,16.15296 8.28047,0.63244 25.41993,-1.33541 25.41993,-1.33541 0,0 8.95267,-0.005 7.70558,-16.01473 -1.24708,-16.01004 -2.24046,-27.54926 -1.34165,-35.09586 0.89879,-7.5466 3.57659,-20.123 3.57659,-20.123 0,0 13.69756,11.84181 15.3479,13.81833 1.65031,1.97652 1.92354,4.51277 -6.42679,8.98271 -8.3503,4.46995 -15.07513,9.55548 -15.07513,9.55548 0,0 3.80603,13.62831 5.83147,13.38111 2.02546,-0.2472 34.18652,-19.78604 34.18652,-19.78604 0,0 7.64958,-4.60576 5.50333,-11.33295 -2.14627,-6.7272 -24.91385,-35.13071 -24.91385,-35.13071 0,0 -6.22983,-8.735637 -15.20365,-10.610501 -8.97383,-1.874862 -11.91831,-3.553489 -11.91831,-3.553489 l -9.0912,-2.785071 -10.80519,18.207741 -2.10556,-1.61163 c 0,0 -6.20857,11.3631 -6.20857,12.81622 0,1.45311 -6.98715,-24.920296 -6.98715,-24.920296 l -6.96433,0.96483 0.41221,1.125813 -3.22936,1.019519 0.25121,1.191326 c 0,0 -9.13689,0.648893 -12.14836,16.959668 -3.01147,16.31078 -7.65869,29.17931 -7.65869,29.17931 0,0 -7.13648,-2.25501 -15.38913,-3.71782 -8.25265,-1.46281 -16.05873,-3.69846 -16.05873,-3.69846 z"
       id="path21681" />
    <path
       style="fill:#718f9f;fill-opacity:0.976471;stroke:#000000;stroke-width:0.765;stroke-linecap:butt;stroke-linejoin:miter;stroke-miterlimit:4;stroke-dasharray:none;stroke-opacity:1"
       d="m 208.11425,54.914125 -9.77449,6.778143 c 0,0 -6.36352,2.788875 2.26026,1.862817 8.62378,-0.926057 19.25233,-6.594408 19.25233,-6.594408 0,0 -8.13404,0.639402 -11.7381,-2.046552 z"
       id="path39889" />
    <path
       style="fill:#7491a5;fill-opacity:0.976471;stroke:#000000;stroke-width:0.665;stroke-linecap:butt;stroke-linejoin:miter;stroke-miterlimit:4;stroke-dasharray:none;stroke-opacity:1"
       d="m 208.11425,54.914125 -2.86767,-11.372869 c 0,0 12.35512,-5.107956 19.86285,-5.789655 7.50773,-0.681696 20.63935,-2.123384 21.70267,-1.402979 1.06332,0.720405 1.93069,13.729102 1.93069,13.729102 0,0 -6.90971,2.698098 -15.80113,4.668472 -2.87813,0.637805 -6.4559,1.263688 -9.59933,1.654436 -1.25694,0.156246 -2.44443,0.742337 -3.48998,0.560045 z"
       id="path40034"
       sodipodi:nodetypes="ccsscsssc" />
    <path
       style="fill:none;stroke:#000000;stroke-width:0.264583px;stroke-linecap:butt;stroke-linejoin:miter;stroke-opacity:1"
       d="m 205.24658,43.541256 c 0,0 13.33305,0.443148 19.20048,-0.488418 5.86744,-0.931566 17.59235,-3.237688 17.59235,-3.237688"
       id="path40280" />
    <path
       style="fill:#ffe5ce;fill-opacity:0.976471;stroke:#000000;stroke-width:1.165;stroke-linecap:butt;stroke-linejoin:miter;stroke-miterlimit:4;stroke-dasharray:none;stroke-opacity:1"
       d="m 212.11243,61.35094 c 0,0 1.19731,2.107361 1.31915,5.480494 0.12184,3.373133 0.49318,1.993429 -0.91907,3.945194 -1.41225,1.951765 -1.17702,1.746517 0.48855,3.974912 1.66558,2.228398 2.70745,10.161363 4.96245,10.997216 2.255,0.83585 6.90245,-0.07898 8.31179,-0.337484 1.40934,-0.258506 2.35008,-0.957697 3.14681,0.273291 0.79673,1.230984 0.87772,2.455119 0.87772,4.256592 0,1.801474 0.30436,4.481412 1.25228,5.409534 0.94793,0.928121 0.2157,3.344465 3.73283,0.221818 3.51713,-3.122646 7.25115,-8.201231 9.46287,-9.963631 2.21172,-1.7624 2.21172,-3.3504 2.21172,-3.3504 0,0 -2.49345,-7.827547 -2.64776,-8.316966 -0.15431,-0.489415 -5.21702,-2.520664 -5.39615,-3.569837 -0.17912,-1.049171 1.60053,-3.941268 0.76567,-5.626389 -0.83486,-1.68512 -3.83268,-4.311073 -4.51948,-2.845874 -0.6868,1.465197 -2.82458,5.46725 -2.82458,5.46725 l -1.99468,-5.440977 c 0,0 -1.0346,1.531488 -4.18821,0.980469 -3.1536,-0.551021 -5.65554,-2.23254 -7.74203,-2.884127 -2.0865,-0.651589 -3.33959,-1.818825 -2.74901,-0.646462 0.59059,1.172366 2.45791,3.042867 3.43654,3.4456 0.97862,0.402733 1.64194,0.522362 -1.66594,0.44295 -3.30789,-0.07942 -5.32147,-1.913173 -5.32147,-1.913173 z"
       id="path40412" />
    <path
       style="fill:none;stroke:#000000;stroke-width:0.465;stroke-linecap:butt;stroke-linejoin:miter;stroke-miterlimit:4;stroke-dasharray:none;stroke-opacity:1"
       d="m 218.10406,78.660777 c 0.30957,0.06983 1.82146,-0.02851 2.69123,-0.408305 1.01664,-0.443923 1.7869,-1.574798 1.7869,-1.574798"
       id="path40776"
       sodipodi:nodetypes="csc" />
    <path
       style="fill:#5b0f0d;fill-opacity:0.976471;stroke:#000000;stroke-width:0.264583px;stroke-linecap:butt;stroke-linejoin:miter;stroke-opacity:1"
       d="m 215.41918,66.632764 c 0,0 -1.03998,-0.375563 0.0878,-0.917938 1.12781,-0.542374 2.67718,-0.32091 3.41567,-0.07206 0.73849,0.248846 1.14267,1.27404 0.62388,1.18654 -0.51878,-0.0875 -1.05149,-0.057 -1.05149,-0.057 0,0 -0.26116,-0.115462 -0.29256,0.5593 -0.0314,0.674762 -0.27661,1.390785 -0.78174,1.162518 -0.50513,-0.228269 -1.16407,-0.955971 -1.01008,-1.329478 0.15399,-0.373504 -0.99151,-0.531881 -0.99151,-0.531881 z"
       id="path41161" />
    <path
       style="fill:none;stroke:#000000;stroke-width:0.264583px;stroke-linecap:butt;stroke-linejoin:miter;stroke-opacity:1"
       d="m 239.35333,69.240209 -1.95653,1.568544 -2.1743,0.662692 v 0 0"
       id="path44942"
       sodipodi:nodetypes="ccccc" />
    <path
       style="fill:none;stroke:#000000;stroke-width:0.264583px;stroke-linecap:butt;stroke-linejoin:miter;stroke-opacity:1"
       d="m 235.53502,67.474255 0.0927,-0.569275 0.0917,-0.562687 0.31762,-0.547063 0.59759,-0.207024"
       id="path45443"
       sodipodi:nodetypes="ccccc" />
    <path
       style="fill:#768fa6;fill-opacity:0.976471;stroke:#49161d;stroke-width:1.065;stroke-linecap:butt;stroke-linejoin:miter;stroke-miterlimit:4;stroke-dasharray:none;stroke-opacity:1"
       d="m 235.92539,124.53687 14.92692,-17.04642 -5.89764,-2.76971 8.74212,-1.83686 7.1111,-16.07923 -9.0912,-2.785073 -10.80519,18.207743 -2.10556,-1.61163 -6.88092,13.11178 z"
       id="path46087" />
    <path
       style="fill:none;stroke:#000000;stroke-width:0.965;stroke-linecap:butt;stroke-linejoin:miter;stroke-miterlimit:4;stroke-dasharray:none;stroke-opacity:1"
       d="m 232.50603,97.177642 c 0,0 -2.48156,7.735298 -2.14782,9.211388 0.33375,1.47608 1.56681,7.33844 1.56681,7.33844 l 6.88092,-13.11178 2.10556,1.61163 10.80519,-18.207743 c 0,0 0.62352,-7.364743 -5.46369,-4.426604 0.65479,2.58853 0.70653,2.665503 0.70653,2.665503 0,0 -9.84801,12.745114 -11.58227,13.321175 -1.73425,0.576062 -2.87123,1.597991 -2.87123,1.597991 z"
       id="path52636" />
    <path
       style="fill:#91635a;fill-opacity:0.976471;stroke:#000000;stroke-width:1.065;stroke-linecap:butt;stroke-linejoin:miter;stroke-miterlimit:4;stroke-dasharray:none;stroke-opacity:1"
       d="m 245.11843,73.677832 c 0,0 1.24168,-1.142688 1.93481,-2.855627 0.69313,-1.712939 3.42757,-7.400882 3.38542,-9.961065 -0.0421,-2.560179 -0.73601,-6.360535 -1.13273,-7.523543 4.43472,-0.294754 4.34523,-0.525119 4.34523,-0.525119 l -4.90837,-2.734754 -28.89044,6.882953 -3.9015,1.793719 9.12036,4.338875 c 0,0 3.8843,0.803577 5.27134,-1.167588 2.14113,5.302912 1.99468,5.440977 1.99468,5.440977 l 3.14708,-5.353405 1.91773,-0.215503 2.01834,2.024769 c 0,0 1.46203,1.976578 0.69749,3.697131 -0.76454,1.720557 -0.76454,1.720557 -0.76454,1.720557 l 0.0639,1.604737 z"
       id="path874" />
    <path
       style="fill:none;stroke:#000000;stroke-width:0.965;stroke-linecap:butt;stroke-linejoin:miter;stroke-miterlimit:4;stroke-dasharray:none;stroke-opacity:1"
       d="m 246.00216,53.91728 c 0,0 1.85916,5.944397 1.42685,7.205433 0.74386,0.758258 2.81133,-4.27254 2.81133,-4.27254"
       id="path1039" />
    <path
       style="fill:none;stroke:#000000;stroke-width:0.665;stroke-linecap:butt;stroke-linejoin:miter;stroke-miterlimit:4;stroke-dasharray:none;stroke-opacity:1"
       d="m 225.33203,55.800182 c 0,0 4.87255,5.042178 5.01052,6.125501 0.13796,1.083321 0.29091,1.085869 0.29091,1.085869"
       id="path1180" />
    <path
       style="fill:none;stroke:#000000;stroke-width:0.665;stroke-linecap:butt;stroke-linejoin:miter;stroke-miterlimit:4;stroke-dasharray:none;stroke-opacity:1"
       d="m 228.54337,86.050055 c 0,0 -2.3518,2.258256 -2.5251,3.951132 -0.1733,1.692873 -0.33993,8.365976 -0.33993,8.365976 0,0 1.89086,-1.405778 2.86399,-1.749462 0.97313,-0.343683 1.1917,-0.751673 1.59428,0.113388 0.40258,0.86506 0.51417,1.980567 0.51417,1.980567 v 0"
       id="path1462" />
    <path
       style="fill:none;stroke:#000000;stroke-width:0.665;stroke-linecap:butt;stroke-linejoin:miter;stroke-opacity:1;stroke-miterlimit:4;stroke-dasharray:none"
       d="m 226.26567,89.426186 4.05059,16.763184 2.18977,-9.011728 c 0,0 -2.58656,-7.221498 -2.42481,-9.161039 0.16176,-1.939542 -0.6245,-2.42719 -0.6245,-2.42719 z"
       id="path1605" />
    <path
       style="fill:none;stroke:#000000;stroke-width:0.865;stroke-linecap:butt;stroke-linejoin:miter;stroke-miterlimit:4;stroke-dasharray:none;stroke-opacity:1"
       d="m 238.80594,100.61569 c 0,0 -2.18723,-2.897269 -2.83298,-2.908024 -0.64575,-0.01074 -2.07526,2.520484 -2.07526,2.520484"
       id="path1749" />
    <path
       style="fill:#cdab90;fill-opacity:0.976471;stroke:#000000;stroke-width:0.665;stroke-linecap:butt;stroke-linejoin:miter;stroke-miterlimit:4;stroke-dasharray:none;stroke-opacity:1"
       d="m 256.01007,170.29233 c 0,0 2.09456,0.33607 4.09884,0.0931 2.00429,-0.24301 7.12867,-0.69286 7.12867,-0.69286 0,0 8.62314,14.51312 8.74585,15.43077 0.12272,0.91765 -5.84583,5.16021 -6.85107,4.84417 -1.00523,-0.31605 -8.79569,-16.57407 -13.12229,-19.67514 z"
       id="path2040" />
    <path
       style="fill:#7491a5;fill-opacity:0.976471;stroke:#000000;stroke-width:1.165;stroke-linecap:butt;stroke-linejoin:miter;stroke-miterlimit:4;stroke-dasharray:none;stroke-opacity:1"
       d="m 210.88085,190.54415 2.16221,44.43959 24.24725,0.76499 35.94328,-0.0468 0.40114,-8.45382 -1.44391,-0.17024 c 0,0 -3.63244,-34.06025 -5.54636,-34.88211 -1.91392,-0.82185 -13.68681,2.26277 -17.44885,2.35698 -3.76204,0.0942 -10.5463,-0.3184 -12.99215,-0.94025 -2.44586,-0.62186 -4.73436,-13.13091 -4.73436,-13.13091 0,0 0.0677,4.81725 -0.44205,7.25626 -0.5097,2.43901 -0.73852,5.13769 -3.35844,5.68694 -2.61991,0.54925 -16.78776,-2.88066 -16.78776,-2.88066 z"
       id="path2187" />
    <path
       style="fill:none;stroke:#000000;stroke-width:1.165;stroke-linecap:butt;stroke-linejoin:miter;stroke-miterlimit:4;stroke-dasharray:none;stroke-opacity:1"
       d="m 230.33534,212.48366 c 0,0 3.24137,1.8799 4.49735,6.19645 1.25597,4.31655 2.19021,16.86592 2.19021,16.86592 l 0.0607,0.066 0.0639,0.0661"
       id="path2448" />
    <path
       style="fill:none;stroke:#000000;stroke-width:0.865;stroke-linecap:butt;stroke-linejoin:miter;stroke-miterlimit:4;stroke-dasharray:none;stroke-opacity:1"
       d="m 146.52568,115.63371 8.10834,-2.30552"
       id="path2631" />
    <path
       style="fill:none;stroke:#000000;stroke-width:0.765;stroke-linecap:butt;stroke-linejoin:miter;stroke-miterlimit:4;stroke-dasharray:none;stroke-opacity:1"
       d="m 149.53712,112.61498 7.70855,-2.20206"
       id="path2633" />
    <path
       style="fill:#ffe5ce;fill-opacity:0.976471;stroke:#000000;stroke-width:0.865;stroke-linecap:butt;stroke-linejoin:miter;stroke-miterlimit:4;stroke-dasharray:none;stroke-opacity:1"
       d="m 163.00742,140.43093 c 0,0 0.67895,-3.40661 1.24828,-6.15087 0.56934,-2.74426 -3.00268,-4.48986 -5.60197,-7.2976 -2.59928,-2.80774 -5.8501,-3.1702 -8.13473,-4.01457 -2.28462,-0.84437 -4.27757,-0.94692 -6.08826,-0.57425 -1.81069,0.37266 -0.15329,3.219 -0.15329,3.219 0,0 1.39146,-0.78186 2.13439,-0.44037 0.74294,0.3415 1.33261,2.17742 1.33261,2.17742 l 9.02871,4.46041 -10.80077,-5.03745 c 0,0 -3.7258,-0.43815 -2.78746,-0.27212 0.93835,0.16602 -2.94552,-1.01263 -2.62966,0.17067 0.31586,1.18328 0.90228,2.52978 1.89411,3.01203 0.99183,0.48224 2.7418,1.16271 4.48319,2.70314 1.7414,1.54043 1.52803,2.15379 3.28478,3.45481 1.75675,1.30102 2.30707,1.82089 4.84578,2.67164 2.53871,0.85075 7.94429,1.91811 7.94429,1.91811 z"
       id="path2820" />
    <path
       style="fill:#e8b793;fill-opacity:0.976471;stroke:#000000;stroke-width:0.965;stroke-linecap:butt;stroke-linejoin:miter;stroke-miterlimit:4;stroke-dasharray:none;stroke-opacity:1"
       d="m 272.19082,227.07787 13.54621,0.60275 c 0,0 0.12406,-11.01376 -1.86544,-16.42835 -1.98954,-5.41458 -3.63559,-11.25062 -4.09012,-15.55195 -0.45452,-4.30133 -2.69176,-9.643 -2.69176,-9.643 l -10.40323,4.75408 3.42423,18.34858 z"
       id="path3009" />
    <path
       style="fill:#e8b88f;fill-opacity:0.976471;stroke:#000000;stroke-width:0.665;stroke-linecap:butt;stroke-linejoin:miter;stroke-miterlimit:4;stroke-dasharray:none;stroke-opacity:1"
       d="m 280.56416,200.29337 c 0,0 4.21579,-0.25144 5.50871,-1.05683 1.29288,-0.80537 -0.66815,-5.60247 -1.1116,-6.72434 -0.44346,-1.12187 -1.96694,-5.89264 -2.85908,-6.76391 -0.89218,-0.87127 -1.89191,-1.7556 -3.41913,-2.53526 -1.52723,-0.77967 -4.28205,-1.59526 -4.28205,-1.59526 l 3.60977,7.11267 z"
       id="path3162" />
    <path
       style="fill:#e9b892;fill-opacity:0.976471;stroke:#000000;stroke-width:0.765;stroke-linecap:butt;stroke-linejoin:miter;stroke-miterlimit:4;stroke-dasharray:none;stroke-opacity:1"
       d="m 286.82547,227.3381 c 0,0 4.34859,-7.45672 4.36439,-8.40543 0.0159,-0.94871 -4.72104,-19.58444 -4.72104,-19.58444 l -5.90466,0.94514 c 0,0 1.23608,4.8222 1.92109,6.24076 0.68501,1.41855 1.99535,4.97493 2.37276,7.13988 0.3774,2.16494 0.8855,7.1425 0.94414,8.59754 0.0587,1.45505 -0.0651,5.40907 -0.0651,5.40907 z"
       id="path3316" />
    <path
       style="fill:#e3b38f;fill-opacity:0.976471;stroke:#000000;stroke-width:0.865;stroke-linecap:butt;stroke-linejoin:miter;stroke-miterlimit:4;stroke-dasharray:none;stroke-opacity:1"
       d="m 270.92388,167.59911 1.8219,-0.70521 4.66087,8.70557 3.12174,8.69991 c 0,0 -3.85109,-2.11504 -4.98925,-2.39832 -1.13813,-0.28329 -4.44518,-5.80632 -4.44518,-5.80632 z"
       id="path3471" />
    <path
       style="fill:none;stroke:#000000;stroke-width:1.065;stroke-linecap:butt;stroke-linejoin:miter;stroke-miterlimit:4;stroke-dasharray:none;stroke-opacity:1"
       d="m 229.68691,126.5167 0.79962,20.44664 1.10162,30.93341 v 0"
       id="path3627" />
    <path
       style="fill:none;stroke:#000000;stroke-width:0.965;stroke-linecap:butt;stroke-linejoin:miter;stroke-miterlimit:4;stroke-dasharray:none;stroke-opacity:1"
       d="m 211.92572,120.70277 0.42793,25.59944"
       id="path3784" />
    <path
       style="fill:none;stroke:#000000;stroke-width:1.165;stroke-linecap:butt;stroke-linejoin:miter;stroke-miterlimit:4;stroke-dasharray:none;stroke-opacity:1"
       d="m 216.07995,92.813102 1.59817,9.950018 4.1889,0.78313 -3.13454,4.11492 9.5438,24.64793 1.3161,0.12529 0.14517,0.26207"
       id="path3942" />
    <path
       style="fill:#e5b88d;fill-opacity:0.976471;stroke:#000000;stroke-width:1.265;stroke-linecap:butt;stroke-linejoin:miter;stroke-miterlimit:4;stroke-dasharray:none;stroke-opacity:1"
       d="m 218.64589,89.476444 6.96433,-0.964832 c 0,0 6.06118,23.790978 7.19022,27.092058 1.12905,3.30108 2.95489,10.16293 5.54656,14.43834 2.59166,4.27542 6.62409,11.76039 8.28563,14.99396 1.66155,3.23356 5.77585,8.40435 5.77585,8.40435 0,0 -4.85275,1.6401 -6.40041,2.25564 -1.54766,0.61554 -5.82034,-6.83674 -6.79058,-10.00174 -0.97023,-3.165 -7.43384,-14.62845 -7.43384,-14.62845 l -7.51154,-18.98293 z"
       id="path4101" />
    <path
       style="fill:#ffe5ce;fill-opacity:1;stroke:#000000;stroke-width:0.765;stroke-linecap:butt;stroke-linejoin:miter;stroke-miterlimit:4;stroke-dasharray:none;stroke-opacity:1"
       d="m 267.7655,156.41251 c 0,0 -8.3896,-3.5582 -9.42146,-3.64848 -1.03186,-0.0903 -6.77966,0.39535 -9.00527,1.17518 -2.2256,0.77982 -4.39466,2.05671 -4.54768,2.44964 -0.15302,0.39294 -0.79733,0.31145 -0.43011,1.83082 0.36722,1.51937 0.70947,2.33947 1.30176,2.56527 0.59229,0.2258 1.73389,-0.2639 2.24067,-0.53202 0.50679,-0.26812 1.27655,-0.78168 2.31582,-1.22986 1.03926,-0.44817 2.29451,-1.07255 2.29451,-1.07255 l -6.94055,3.8409 c 0,0 -0.19282,0.35189 -0.24467,1.22986 -0.0518,0.87798 0.63191,2.22009 1.25915,2.66623 0.62724,0.44614 0.93949,0.62723 1.89285,0.20332 0.95336,-0.4239 4.50885,-3.2527 4.50885,-3.2527 0,0 -5.05491,3.54683 -5.06481,4.14113 -0.01,0.59431 0.16356,1.0703 0.73159,1.78962 0.56804,0.71932 1.01783,1.62375 1.80634,1.63688 0.78851,0.0131 2.82676,-1.97188 3.53096,-2.53958 0.7042,-0.56771 -2.28167,2.29274 -2.47745,2.91264 -0.19578,0.61991 -0.49101,0.68028 0.57968,1.20768 1.07069,0.52741 1.5327,0.88892 2.53577,0.62563 1.00307,-0.26329 2.77892,-0.60207 2.77892,-0.60207 l -1.4003,-1.51772 c 0,0 0.35295,-0.63529 1.33332,-0.27121 0.98036,0.36408 6.30643,0.0515 7.59083,-0.072 1.28442,-0.12352 2.46952,-0.61034 3.32227,-0.97231 0.85275,-0.36197 2.66739,-1.3777 2.66739,-1.3777 l -0.35959,-4.56356 z"
       id="path1894" />
    <path
       style="fill:#9b615e;stroke:#000000;stroke-width:0.865;stroke-linecap:butt;stroke-linejoin:miter;stroke-opacity:1;stroke-miterlimit:4;stroke-dasharray:none;fill-opacity:0.97647059"
       d="m 208.51939,61.877807 c 0,0 1.52379,2.27838 2.98456,3.344564 1.46076,1.066186 1.79228,1.258583 1.79228,1.258583 l -1.1838,-5.130014 c 0,0 5.17344,2.397559 6.09045,2.136865 0.91701,-0.260694 -2.25203,-4.733409 -2.25203,-4.733409 z"
       id="path63131" />
    <path
       style="fill:#c9615f;stroke:#000000;stroke-width:0.865;stroke-linecap:butt;stroke-linejoin:miter;stroke-opacity:1;stroke-miterlimit:4;stroke-dasharray:none;fill-opacity:0.97647059"
       d="m 103.83937,159.0119 c 0,0 1.20545,6.36641 4.8872,1.01657 -4.13206,-0.8657 -4.8872,-1.01657 -4.8872,-1.01657 z"
       id="path68570" />
  </g>
</svg>
